<?xml version="1.0" encoding="UTF-8"?>
<svg id="Calque_1" data-name="Calque 1" xmlns="http://www.w3.org/2000/svg" viewBox="0 0 881.48 280.86">
  <g>
    <path d="m121.44,243.94h3.31v8.11h.05c1.82-5.28,7.1-8.64,15.31-8.64,10.83,0,16.97,5.71,16.97,13.34,0,8.91-6.56,14.08-16.7,14.08-9.07,0-13.71-3.04-15.68-7.31h-.05c.05,1.65.1,4.27.1,5.71v11.63h-3.31v-36.92Zm32.33,12.8c0-5.82-4.75-10.35-13.82-10.35s-14.99,5.17-15.2,11.15v1.02c0,4.11,5.12,9.28,15.31,9.28,8.64,0,13.71-3.95,13.71-11.1Z" style="fill: #00082b;"/>
    <path d="m188.28,262.72c0-4.96,4.48-6.83,11.04-6.83h17.98v-.8c0-5.44-3.89-8.86-12.91-8.86-8.32,0-12,2.56-12,6.19,0,.16,0,.38.05.75h-3.2c-.06-.48-.06-.8-.06-.91,0-5.34,5.12-8.86,15.21-8.86,10.99,0,16.22,4.96,16.22,11.95v14.94h-3.31c.1-2.24.16-5.17.21-7.52h-.06c-1.38,4.75-6.4,8-15.79,8s-13.39-3.79-13.39-8.06Zm29.02-4.22v-.11h-17.61c-5.55,0-8.21,1.17-8.21,4.27,0,2.46,1.81,5.28,10.35,5.28,10.72,0,15.47-4.91,15.47-9.44Z" style="fill: #00082b;"/>
    <path d="m253.95,243.94h3.31l-.05,8.86h.1c1.76-5.34,6.35-9.39,13.87-9.39,9.13,0,12.65,5.02,12.65,12.49,0,1.76-.05,3.36-.16,4.16h-3.14c.05-.75.1-2.13.1-3.31,0-6.4-2.45-10.35-9.98-10.35-7.95,0-13.39,6.08-13.39,13.5v10.4h-3.31v-26.36Z" style="fill: #00082b;"/>
    <path d="m319.67,260.11v-13.18h-5.82v-2.99h4.8c.8,0,1.12-.43,1.17-1.6l.21-4.38h2.93v5.98h17.13v2.99h-17.13v12.97c0,4.64,2.45,7.58,10.56,7.58,2.45,0,5.28-.43,6.51-.75v2.93c-1.02.32-3.84.8-6.62.8-10.19,0-13.76-4.43-13.76-10.35Z" style="fill: #00082b;"/>
    <path d="m403.91,257.87h-29.72c.21,5.18,3.2,10.14,13.87,10.14,8.8,0,12.11-2.99,12.65-6.19h3.2c-.48,4.43-4.96,9.02-15.85,9.02-13.5,0-17.18-7.04-17.18-13.5,0-8.64,6.35-13.93,17.02-13.93s16.01,4.91,16.01,12.75v1.71Zm-3.2-2.67c0-5.44-3.89-8.96-12.75-8.96-8.22,0-12.81,3.2-13.66,9.12h26.41v-.16Z" style="fill: #00082b;"/>
    <path d="m436.98,243.94h3.31l-.05,7.9h.1c2.24-5.76,7.63-8.43,16.06-8.43,11.68,0,15.69,5.44,15.69,11.95v14.94h-3.31v-14.19c0-5.71-3.04-9.71-13.13-9.71-8.06,0-15.37,3.74-15.37,11.68v12.22h-3.31v-26.36Z" style="fill: #00082b;"/>
    <path d="m505.1,262.72c0-4.96,4.48-6.83,11.04-6.83h17.98v-.8c0-5.44-3.89-8.86-12.91-8.86-8.32,0-12,2.56-12,6.19,0,.16,0,.38.05.75h-3.2c-.06-.48-.06-.8-.06-.91,0-5.34,5.12-8.86,15.21-8.86,10.99,0,16.22,4.96,16.22,11.95v14.94h-3.31c.1-2.24.16-5.17.21-7.52h-.06c-1.38,4.75-6.4,8-15.79,8s-13.39-3.79-13.39-8.06Zm29.02-4.22v-.11h-17.61c-5.55,0-8.22,1.17-8.22,4.27,0,2.46,1.81,5.28,10.35,5.28,10.72,0,15.47-4.91,15.47-9.44Z" style="fill: #00082b;"/>
    <path d="m570.77,243.94h3.31l-.05,8.86h.1c1.76-5.34,6.35-9.39,13.87-9.39,9.13,0,12.65,5.02,12.65,12.49,0,1.76-.05,3.36-.16,4.16h-3.15c.05-.75.1-2.13.1-3.31,0-6.4-2.45-10.35-9.98-10.35-7.95,0-13.39,6.08-13.39,13.5v10.4h-3.31v-26.36Z" style="fill: #00082b;"/>
    <path d="m633.87,234.34h3.79v5.28h-3.79v-5.28Zm.21,9.6h3.31v26.36h-3.31v-26.36Z" style="fill: #00082b;"/>
    <path d="m671.16,262.72c0-4.96,4.48-6.83,11.04-6.83h17.98v-.8c0-5.44-3.89-8.86-12.91-8.86-8.32,0-12,2.56-12,6.19,0,.16,0,.38.05.75h-3.2c-.06-.48-.06-.8-.06-.91,0-5.34,5.12-8.86,15.21-8.86,10.99,0,16.22,4.96,16.22,11.95v14.94h-3.31c.1-2.24.16-5.17.21-7.52h-.06c-1.38,4.75-6.4,8-15.79,8s-13.39-3.79-13.39-8.06Zm29.02-4.22v-.11h-17.61c-5.55,0-8.22,1.17-8.22,4.27,0,2.46,1.81,5.28,10.35,5.28,10.72,0,15.47-4.91,15.47-9.44Z" style="fill: #00082b;"/>
    <path d="m739.61,260.11v-13.18h-5.82v-2.99h4.8c.8,0,1.12-.43,1.17-1.6l.21-4.38h2.93v5.98h17.13v2.99h-17.13v12.97c0,4.64,2.45,7.58,10.56,7.58,2.45,0,5.28-.43,6.51-.75v2.93c-1.02.32-3.84.8-6.62.8-10.19,0-13.76-4.43-13.76-10.35Z" style="fill: #00082b;"/>
  </g>
  <g>
    <g>
      <path d="m334.5,164.93h-81.23l-13.9,41.39h-51.89L265.94,3.09h63.01l78.45,203.23h-58.99l-13.9-41.39Zm-10.5-31.51l-29.96-88.95h-.62l-29.65,88.95h60.23Z" style="fill: #00082b;"/>
      <path d="m428.08,3.09h50.65v203.23h-50.65V3.09Z" style="fill: #00082b;"/>
      <path d="m508.07,3.09h89.57c47.87,0,76.29,19.77,76.29,53.13,0,22.55-10.81,38.61-29.03,43.55v.31c21.93,4.94,36.75,21.31,36.75,46.95,0,37.37-26.25,59.3-77.52,59.3h-96.06V3.09Zm92.97,84.32c18.22,0,28.41-8.03,28.41-23.16s-10.19-24.4-32.12-24.4h-38.61v47.56h42.32Zm3.09,82.16c18.53,0,29.34-10.5,29.34-27.8,0-14.21-11.12-23.78-30.58-23.78h-44.17v51.58h45.4Z" style="fill: #00082b;"/>
      <path d="m701.11,136.52h45.09c0,21.93,8.96,36.14,42.93,36.14s42.01-12.36,42.01-25.33c0-8.65-3.71-14.21-11.74-16.99-8.96-3.09-29.96-6.18-46.95-8.65-20.07-3.09-40.46-7.1-52.2-14.82-12.97-8.34-19.77-22.55-19.77-42.01,0-38.3,29.96-64.86,88.64-64.86,64.55,0,85.55,26.87,85.55,72.58h-44.78c0-23.16-12.05-35.83-39.84-35.83s-39.22,10.19-39.22,23.78c0,9.88,2.78,15.44,9.88,18.53,7.72,3.4,29.03,6.8,46.33,9.57,22.86,3.71,40.15,7.41,52.2,13.9,14.52,7.72,22.24,22.24,22.24,41.39,0,34.59-19.46,65.48-92.04,65.48s-88.34-35.52-88.34-72.89Z" style="fill: #00082b;"/>
    </g>
    <path d="m122.64,3.08c-.4,1.49-1.16,2.84-1.71,4.18-7.13,17.72-14.36,35.4-21.56,53.09-19.82,48.67-39.61,97.33-59.46,145.97H0C25.31,146.12,50.59,85.9,75.9,25.7c2.41-5.73,4.88-11.44,7.17-17.2,1.16-2.9,3.23-4.42,6.16-4.85,1.4-.18,2.77-.4,4.18-.58h29.24Z" style="fill: #ff4200;"/>
    <path d="m184.39,3.08c-27.57,67.76-55.16,135.48-82.73,203.24h-39.95c16.01-38.21,32.05-76.45,48.12-114.72,12.14-28.82,24.27-57.66,36.41-86.51.27-.67.58-1.34.91-2.01h37.23Z" style="fill: #ff4200;"/>
    <path d="m246.08,3.08c-1.62,3.87-3.2,7.75-4.79,11.65-26.04,63.85-52.05,127.74-78.03,191.59h-40.07c21.96-52.33,43.94-104.62,65.93-156.95,6.49-15.4,12.93-30.83,19.42-46.29h37.54Z" style="fill: #ff4200;"/>
  </g>
</svg>