<?xml version="1.0" encoding="UTF-8"?>
<svg id="Calque_1" data-name="Calque 1" xmlns="http://www.w3.org/2000/svg" viewBox="0 0 187.84 155.15">
  <path d="m93.62.01c-.3,1.14-.88,2.16-1.3,3.19-5.45,13.52-10.96,27.02-16.46,40.52-15.13,37.15-30.24,74.3-45.39,111.42H0C19.32,109.2,38.62,63.23,57.94,17.28c1.84-4.38,3.72-8.73,5.47-13.13.88-2.21,2.47-3.38,4.7-3.7,1.07-.14,2.12-.3,3.19-.44,0,0,22.32,0,22.32,0Z" style="fill: #ff4200;"/>
  <path d="m140.75.01c-21.04,51.72-42.11,103.42-63.15,155.14h-30.49c12.22-29.17,24.46-58.35,36.73-87.57,9.26-22,18.53-44.02,27.79-66.04.21-.51.44-1.02.7-1.54h28.42Z" style="fill: #fff;" />
  <path d="m187.84.01c-1.23,2.96-2.44,5.91-3.65,8.89-19.88,48.74-39.73,97.51-59.56,146.25h-30.59c16.76-39.94,33.54-79.86,50.32-119.8,4.96-11.75,9.87-23.53,14.83-35.33h28.65,0Z" style="fill: #fff;"/>
</svg>