<svg id="TWITTER" xmlns="http://www.w3.org/2000/svg" width="33" height="33" viewBox="0 0 33 33">
  <circle id="Ellipse_14" data-name="Ellipse 14" cx="16.5" cy="16.5" r="16.5" fill="#03a9f5"/>
  <path id="Icon_awesome-twitter" data-name="Icon awesome-twitter" d="M14.862,6.734c.011.147.011.294.011.441a9.593,9.593,0,0,1-9.659,9.659A9.594,9.594,0,0,1,0,15.31a7.023,7.023,0,0,0,.82.042A6.8,6.8,0,0,0,5.034,13.9,3.4,3.4,0,0,1,1.86,11.547,4.281,4.281,0,0,0,2.5,11.6a3.591,3.591,0,0,0,.893-.116A3.4,3.4,0,0,1,.673,8.152V8.11a3.419,3.419,0,0,0,1.534.431A3.4,3.4,0,0,1,1.156,4a9.65,9.65,0,0,0,7,3.552,3.832,3.832,0,0,1-.084-.778,3.4,3.4,0,0,1,5.875-2.323,6.684,6.684,0,0,0,2.155-.82A3.386,3.386,0,0,1,14.609,5.5a6.806,6.806,0,0,0,1.955-.525A7.3,7.3,0,0,1,14.862,6.734Z" transform="translate(8.456 6.156)" fill="#fff"/>
</svg>
