<svg xmlns="http://www.w3.org/2000/svg" width="24.48" height="23.204" viewBox="0 0 24.48 23.204">
  <g id="importer" transform="translate(-5.25 -7.25)">
    <path id="Tracé_57" data-name="Tracé 57" d="M11.107,15.66V14.383a6.383,6.383,0,0,1,12.767,0V15.66a5.107,5.107,0,0,1,5.107,5.107,5.179,5.179,0,0,1-2.553,4.468M11.107,15.66A5.107,5.107,0,0,0,6,20.767a5.179,5.179,0,0,0,2.553,4.468m2.553-9.575a5.106,5.106,0,0,1,1.583.25m4.8,2.3V29.7m0-11.49,3.83,3.83m-3.83-3.83-3.83,3.83" transform="translate(0)" fill="none" stroke="#BFBFBF" stroke-linecap="round" stroke-linejoin="round" stroke-width="1.5"/>
  </g>
</svg>
